<svg id="Camada_1" data-name="Camada 1" xmlns="http://www.w3.org/2000/svg" viewBox="0 0 3000 880"><defs><style>.cls-1,.cls-6{fill:#fff;}.cls-2,.cls-4,.cls-5{fill:none;}.cls-2{stroke:#363636;}.cls-2,.cls-5,.cls-8{stroke-linecap:round;stroke-linejoin:round;}.cls-2,.cls-4{stroke-width:5px;}.cls-3{fill:#1a1a1a;}.cls-4,.cls-8{stroke:#333;}.cls-4,.cls-7{stroke-miterlimit:10;}.cls-5{stroke:#1a1a1a;stroke-width:13px;}.cls-6{font-size:664.82px;font-family:LemonMilklightitalic, Lemon/Milk;font-style:italic;}.cls-7{stroke:#fff;stroke-width:12px;}.cls-10,.cls-8{fill:#e6e6e6;}.cls-8{stroke-width:18px;}.cls-9{fill:#b3b3b3;}</style></defs><title>debus-white</title><path class="cls-1" d="M299.89,250H207a11,11,0,0,1,0-22h92.89a11,11,0,0,1,0,22Z"/><path class="cls-1" d="M822,250H549a11,11,0,0,1,0-22H822a11,11,0,0,1,0,22Z"/><path class="cls-1" d="M775,379.55H556.37a11,11,0,0,1,0-22H775a11,11,0,0,1,0,22Z"/><path class="cls-1" d="M447.81,379.55H277.89a11,11,0,0,1,0-22H447.81a11,11,0,0,1,0,22Z"/><path class="cls-1" d="M665.78,519.73H385a11,11,0,0,1,0-22H665.78a11,11,0,0,1,0,22Z"/><path class="cls-1" d="M735.78,689.92H299.66a11,11,0,1,1,0-22H735.78a11,11,0,0,1,0,22Z"/><path class="cls-2" d="M2127,682.76c96.06,9.43,260,2.17,392.25,5.66,8.24.22,28.71-1.34,62.94-.68,11.94.23,51.11-13.63,71.32-51.7,25.87-48.69-1.81-101.16-3.54-104.32-6.23-11.36-9-11.08-28.87-38.46,0,0-16.07-22.18-34.17-51.83-54.14-88.69-69.65-196.55-127.38-209-9.12-2-7.24-1.63-50.85-1.93-34.94-.24-59.84-.53-69.4-.39-137.92,2.08-183.14-4.47-211.22,12-16.72,9.84-15.52,24.32-9.72,120.17,6.32,104.37,4.76,150.44,3,183-2.84,51.12-3.73,97.54-2.44,126.94C2119.19,678.86,2119.92,682.07,2127,682.76Z"/><path class="cls-3" d="M2123.1,484.45c10.18-6,34-12.73,98.94-14.53,71.34-2,107-3,137.32,10.62,40.4,18.11,36.08,36.7,79,52.07,43.27,15.5,83,9.26,95.45,7.16,41.53-7,54.62-42.6,85.57-37.37a50.59,50.59,0,0,1,19,7.68c-2.06-2.42-4.35-5.16-6.92-8.31,0,0-16.45-20.14-35-47C2541,374.24,2525,276.47,2466,265c-9.32-1.81-7.4-1.49-51.91-1.86-35.66-.29-61.07-.61-70.83-.5-140.76,1.58-186.92-4.46-215.55,10.45-17,8.87-15.78,22-9.65,108.87C2118.07,382,2122.93,419.93,2123.1,484.45Z"/><path class="cls-4" d="M2265.1,624.41c.05-2.41-4.91-4.47-11-4.59l-132.51-2.55c-.1,5.65-.51,10.19-1,14.2-2.22,19.65-2.57,37.51-.94,48.85.37,2.58,1.15,3.82,8.25,4.17,37.13,1.84,84.36,2.85,136,3.55Z"/><line class="cls-5" x1="2470.39" y1="655.73" x2="2551.8" y2="657.3"/><text class="cls-6" transform="translate(784.66 719.83) scale(0.8 1)">DeBU<tspan class="cls-7" x="1423.13" y="0">S</tspan></text><ellipse class="cls-3" cx="2358.06" cy="661.09" rx="74.94" ry="74.91"/><ellipse class="cls-8" cx="2357.82" cy="662.3" rx="38.2" ry="38.18"/><path class="cls-9" d="M2491.42,349.94l-81.51,64.43c-1.52,1.2.62,3.31,2.12,2.12l81.51-64.43c1.52-1.2-.62-3.31-2.12-2.12Z"/><path class="cls-9" d="M2495.74,367.05A183.69,183.69,0,0,0,2463,393.62c-1.35,1.38.77,3.51,2.12,2.12a179.83,179.83,0,0,1,32.11-26.1c1.62-1,.12-3.64-1.51-2.59Z"/><path class="cls-9" d="M2427.15,376.69,2395,403.28c-1.49,1.23.64,3.35,2.12,2.13l32.18-26.6c1.49-1.23-.64-3.34-2.12-2.12Z"/><path class="cls-10" d="M2618.57,535.62c-15.52,4.74-31.36,14.64-37.62,26s.37,23,15.22,22.11c8.38-.48,17.46-4.44,25.66-8.73,5.24-2.74,10.65-5.92,13.67-9.94,4.16-5.55,2.54-10.9.78-15.55-3-8-9.57-17-22.79-13.38"/><path class="cls-9" d="M2618.17,534.17c-13.12,4.15-26.73,11.08-35.4,22.1-5.9,7.49-8.72,18.91.11,25.5,10.18,7.6,25,1.7,35-3.09,11.37-5.43,25.37-12.84,20.53-27.6-3.85-11.74-12.53-19.47-25.33-16.38-1.87.46-1.08,3.35.8,2.9,6.7-1.62,12.77-.26,17.11,5.32,3.24,4.18,6.22,10.68,5.45,16-1.16,8-10.45,12.3-16.92,15.59-6.78,3.45-14.12,6.79-21.78,7.59-5.89.62-12.8-.52-16.08-6-3.07-5.17-1.15-11.3,2-15.94,7.85-11.74,22.27-18.94,35.34-23.08,1.83-.58,1.05-3.48-.8-2.89Z"/></svg>